<?xml version="1.0" encoding="UTF-8"?>
<svg width="512px" height="440px" viewBox="0 0 512 440" version="1.1" xmlns="http://www.w3.org/2000/svg" xmlns:xlink="http://www.w3.org/1999/xlink">
    <!-- Generator: Sketch 55.2 (78181) - https://sketchapp.com -->
    <title>fast-forward-arrows</title>
    <desc>Created with Sketch.</desc>
    <g id="Page-1" stroke="none" stroke-width="1" fill="none" fill-rule="evenodd">
        <g id="fast-forward-arrows" fill="#FFFFFF" fill-rule="nonzero">
            <path d="M506.203,5.968 C502.586,2.351 498.301,0.542 493.352,0.542 L456.81,0.542 C451.862,0.542 447.578,2.351 443.963,5.968 C440.343,9.587 438.536,13.87 438.536,18.819 L438.536,212.391 C437.581,210.3 436.346,208.492 434.819,206.967 L232.11,4.257 C228.494,0.642 225.452,-0.596 222.974,0.548 C220.5,1.689 219.263,4.735 219.263,9.683 L219.263,212.391 C218.313,210.3 217.076,208.492 215.554,206.967 L12.847,4.257 C9.23,0.642 6.186,-0.596 3.712,0.548 C1.237,1.689 0,4.735 0,9.683 L0,429.945 C0,434.893 1.241,437.943 3.715,439.086 C6.189,440.226 9.233,438.987 12.85,435.366 L215.557,232.658 C217.077,230.95 218.317,229.139 219.266,227.237 L219.266,429.945 C219.266,434.893 220.503,437.939 222.977,439.079 C225.451,440.219 228.497,438.979 232.113,435.362 L434.822,232.654 C436.345,230.943 437.584,229.13 438.536,227.226 L438.536,420.797 C438.536,425.745 440.346,430.026 443.963,433.644 C447.577,437.261 451.861,439.069 456.81,439.069 L493.356,439.069 C498.3,439.069 502.588,437.261 506.206,433.644 C509.82,430.027 511.631,425.746 511.631,420.797 L511.631,18.819 C511.631,13.863 509.82,9.584 506.203,5.968 Z" id="Path"></path>
        </g>
    </g>
</svg>